# xmcd CD database file
#
# Track frame offsets:
#	150
#	19015
#	35627
#	71617
#	101850
#	123412
#	147145
#	172410
#	204025
#	241340
#	258225
#
# Disc length: 3829 seconds
#
# Revision: 0
# Processed by: cddbd v1.5.1PL2 Copyright (c) Steve Scherf et al.
# Submitted via: Feurio! 1.63 - http://www.feurio.com
#
DISCID=9b0ef30b
DTITLE=K-Banda - A-KULU-MOA
DYEAR=1900
DGENRE=
TTITLE0=Pentology
TTITLE1=Jomaa'tal
TTITLE2=A-kulu-moa
TTITLE3=Hund blues
TTITLE4=La fanku
TTITLE5=Pictures of city life
TTITLE6=Ordoo
TTITLE7=1.75
TTITLE8=Quartetto libero
TTITLE9=Between time
TTITLE10=The fire stone bluse
EXTD=
EXTT0=
EXTT1=
EXTT2=
EXTT3=
EXTT4=
EXTT5=
EXTT6=
EXTT7=
EXTT8=
EXTT9=
EXTT10=
PLAYORDER=
